HIERARCHY
ROOT Hips
{
	OFFSET 0.000000 83.214638 0.000000
	CHANNELS 6 Xposition Yposition Zposition Xrotation Yrotation Zrotation
	JOINT Pelvis
	{
		OFFSET 0.000000 0.000000 0.000000
		CHANNELS 3 Xrotation Yrotation Zrotation
		JOINT LeftUpLeg
		{
			OFFSET 8.479700 -4.795502 -0.379100
			CHANNELS 3 Xrotation Yrotation Zrotation
			JOINT LeftLeg
			{
				OFFSET 0.024144 -32.555107 0.112900
				CHANNELS 3 Xrotation Yrotation Zrotation
				JOINT LeftFoot
				{
					OFFSET -0.024144 -32.638630 -3.012600
					CHANNELS 3 Xrotation Yrotation Zrotation
					JOINT LeftToeBase
					{
						OFFSET 0.970200 -13.225400 11.864200
						CHANNELS 3 Xrotation Yrotation Zrotation
						End Site
						{
							OFFSET 0.000000 12.319262 0.000000
						}
					}
					JOINT LFootTongue
					{
						OFFSET 1.142400 -1.059800 6.665200
						CHANNELS 3 Xrotation Yrotation Zrotation
						End Site
						{
							OFFSET 0.000000 12.319262 0.000000
						}
					}
				}
				JOINT LeftPantLeg
				{
					OFFSET 0.918482 -16.533964 -2.284700
					CHANNELS 3 Xrotation Yrotation Zrotation
					End Site
					{
						OFFSET 0.350399 24.744368 0.000000
					}
				}
			}
		}
		JOINT RightUpLeg
		{
			OFFSET -8.479700 -4.795502 -0.379100
			CHANNELS 3 Xrotation Yrotation Zrotation
			JOINT RightLeg
			{
				OFFSET -0.023144 -32.555092 0.112900
				CHANNELS 3 Xrotation Yrotation Zrotation
				JOINT RightFoot
				{
					OFFSET 0.023144 -32.638641 -3.012700
					CHANNELS 3 Xrotation Yrotation Zrotation
					JOINT RightToeBase
					{
						OFFSET -0.970200 -13.225400 11.864200
						CHANNELS 3 Xrotation Yrotation Zrotation
						End Site
						{
							OFFSET 0.000000 12.319244 0.000000
						}
					}
					JOINT RFootTongue
					{
						OFFSET -1.142200 -1.059800 6.665200
						CHANNELS 3 Xrotation Yrotation Zrotation
						End Site
						{
							OFFSET 0.000000 12.319243 0.000000
						}
					}
				}
				JOINT RightPantLeg
				{
					OFFSET -0.919482 -16.533978 -2.284800
					CHANNELS 3 Xrotation Yrotation Zrotation
					End Site
					{
						OFFSET -0.350400 24.744419 0.000000
					}
				}
			}
		}
	}
	JOINT Spine
	{
		OFFSET 0.000000 7.722000 1.166200
		CHANNELS 3 Xrotation Yrotation Zrotation
		JOINT Spine1
		{
			OFFSET 0.000000 12.024101 0.248800
			CHANNELS 3 Xrotation Yrotation Zrotation
			JOINT Spine2
			{
				OFFSET 0.000000 11.502998 -0.491200
				CHANNELS 3 Xrotation Yrotation Zrotation
				JOINT Neck
				{
					OFFSET 0.000000 18.430702 -3.123100
					CHANNELS 3 Xrotation Yrotation Zrotation
					JOINT Head
					{
						OFFSET 0.000000 9.051102 1.034000
						CHANNELS 3 Xrotation Yrotation Zrotation
						JOINT HairB
						{
							OFFSET 0.208400 24.786102 24.822300
							CHANNELS 3 Xrotation Yrotation Zrotation
							End Site
							{
								OFFSET 0.000000 32.263779 0.000000
							}
						}
						JOINT HairA
						{
							OFFSET -7.081100 24.428299 23.196600
							CHANNELS 3 Xrotation Yrotation Zrotation
							End Site
							{
								OFFSET 0.000000 32.263779 0.000000
							}
						}
						JOINT Hat
						{
							OFFSET 16.728800 15.048294 -15.439601
							CHANNELS 3 Xrotation Yrotation Zrotation
							End Site
							{
								OFFSET 0.000000 32.263779 0.000000
							}
						}
					}
				}
				JOINT LeftShoulder
				{
					OFFSET 6.197800 13.665199 -4.064700
					CHANNELS 3 Xrotation Yrotation Zrotation
					JOINT LeftArm
					{
						OFFSET 7.778100 -0.187103 -1.709300
						CHANNELS 3 Xrotation Yrotation Zrotation
						JOINT LeftForeArm
						{
							OFFSET 22.049376 0.000000 0.000000
							CHANNELS 3 Xrotation Yrotation Zrotation
							JOINT LeftHand
							{
								OFFSET 23.009392 0.000000 0.000000
								CHANNELS 3 Xrotation Yrotation Zrotation
								JOINT LeftHandThumb1
								{
									OFFSET 3.507191 -2.063065 3.133727
									CHANNELS 3 Xrotation Yrotation Zrotation
									JOINT LeftHandThumb2
									{
										OFFSET 3.101337 -1.790558 1.790558
										CHANNELS 3 Xrotation Yrotation Zrotation
										JOINT LeftHandThumb3
										{
											OFFSET 3.058640 -1.765907 1.765906
											CHANNELS 3 Xrotation Yrotation Zrotation
											End Site
											{
												OFFSET -0.415260 3.926476 -0.049563
											}
										}
									}
								}
								JOINT LeftHandIndex1
								{
									OFFSET 11.334419 -0.901459 3.706815
									CHANNELS 3 Xrotation Yrotation Zrotation
									JOINT LeftHandIndex2
									{
										OFFSET 3.283112 0.000000 0.000000
										CHANNELS 3 Xrotation Yrotation Zrotation
										JOINT LeftHandIndex3
										{
											OFFSET 3.323853 0.000000 0.000000
											CHANNELS 3 Xrotation Yrotation Zrotation
											End Site
											{
												OFFSET -1.135597 3.097809 0.402452
											}
										}
									}
								}
								JOINT LeftHandMiddle1
								{
									OFFSET 11.335861 0.000000 0.000000
									CHANNELS 3 Xrotation Yrotation Zrotation
									JOINT LeftHandMiddle2
									{
										OFFSET 3.410492 0.000000 0.000000
										CHANNELS 3 Xrotation Yrotation Zrotation
										JOINT LeftHandMiddle3
										{
											OFFSET 3.312172 0.000000 0.000000
											CHANNELS 3 Xrotation Yrotation Zrotation
											End Site
											{
												OFFSET -1.150200 3.080154 0.400270
											}
										}
									}
								}
								JOINT LeftHandRing1
								{
									OFFSET 11.514786 -0.013176 -3.003090
									CHANNELS 3 Xrotation Yrotation Zrotation
									JOINT LeftHandRing2
									{
										OFFSET 3.053307 0.000000 0.000000
										CHANNELS 3 Xrotation Yrotation Zrotation
										JOINT LeftHandRing3
										{
											OFFSET 3.295807 0.000000 0.000000
											CHANNELS 3 Xrotation Yrotation Zrotation
											End Site
											{
												OFFSET -1.281006 3.013344 0.375733
											}
										}
									}
								}
								JOINT LeftHandPinky1
								{
									OFFSET 10.518692 -0.960396 -5.730441
									CHANNELS 3 Xrotation Yrotation Zrotation
									JOINT LeftHandPinky2
									{
										OFFSET 2.861649 0.000000 0.000000
										CHANNELS 3 Xrotation Yrotation Zrotation
										JOINT LeftHandPinky3
										{
											OFFSET 2.863380 0.000000 0.000000
											CHANNELS 3 Xrotation Yrotation Zrotation
											End Site
											{
												OFFSET -0.843597 2.711159 0.369971
											}
										}
									}
								}
							}
							JOINT LSleeve
							{
								OFFSET 6.676277 -0.344902 -1.011730
								CHANNELS 3 Xrotation Yrotation Zrotation
								End Site
								{
									OFFSET 0.000000 14.885353 0.000000
								}
							}
						}
					}
				}
				JOINT RightShoulder
				{
					OFFSET -6.197800 13.665199 -4.064700
					CHANNELS 3 Xrotation Yrotation Zrotation
					JOINT RightArm
					{
						OFFSET -7.778100 -0.187103 -1.709300
						CHANNELS 3 Xrotation Yrotation Zrotation
						JOINT RightForeArm
						{
							OFFSET -22.049376 0.000000 0.000000
							CHANNELS 3 Xrotation Yrotation Zrotation
							JOINT RightHand
							{
								OFFSET -23.009392 0.000000 0.000000
								CHANNELS 3 Xrotation Yrotation Zrotation
								JOINT RightHandThumb1
								{
									OFFSET -3.507191 -2.063065 3.133727
									CHANNELS 3 Xrotation Yrotation Zrotation
									JOINT RightHandThumb2
									{
										OFFSET -3.101337 -1.790558 1.790558
										CHANNELS 3 Xrotation Yrotation Zrotation
										JOINT RightHandThumb3
										{
											OFFSET -3.058640 -1.765907 1.765906
											CHANNELS 3 Xrotation Yrotation Zrotation
											End Site
											{
												OFFSET 0.415260 3.926476 -0.049563
											}
										}
									}
								}
								JOINT RightHandIndex1
								{
									OFFSET -11.334419 -0.901459 3.706815
									CHANNELS 3 Xrotation Yrotation Zrotation
									JOINT RightHandIndex2
									{
										OFFSET -3.283112 0.000000 0.000000
										CHANNELS 3 Xrotation Yrotation Zrotation
										JOINT RightHandIndex3
										{
											OFFSET -3.323853 0.000000 0.000000
											CHANNELS 3 Xrotation Yrotation Zrotation
											End Site
											{
												OFFSET 1.135597 3.097809 0.402452
											}
										}
									}
								}
								JOINT RightHandMiddle1
								{
									OFFSET -11.335861 0.000000 0.000000
									CHANNELS 3 Xrotation Yrotation Zrotation
									JOINT RightHandMiddle2
									{
										OFFSET -3.410492 0.000000 0.000000
										CHANNELS 3 Xrotation Yrotation Zrotation
										JOINT RightHandMiddle3
										{
											OFFSET -3.312172 0.000000 0.000000
											CHANNELS 3 Xrotation Yrotation Zrotation
											End Site
											{
												OFFSET 1.150200 3.080154 0.400270
											}
										}
									}
								}
								JOINT RightHandRing1
								{
									OFFSET -11.514786 -0.013176 -3.003090
									CHANNELS 3 Xrotation Yrotation Zrotation
									JOINT RightHandRing2
									{
										OFFSET -3.053307 0.000000 0.000000
										CHANNELS 3 Xrotation Yrotation Zrotation
										JOINT RightHandRing3
										{
											OFFSET -3.295807 0.000000 0.000000
											CHANNELS 3 Xrotation Yrotation Zrotation
											End Site
											{
												OFFSET 1.281006 3.013344 0.375733
											}
										}
									}
								}
								JOINT RightHandPinky1
								{
									OFFSET -10.518692 -0.960396 -5.730441
									CHANNELS 3 Xrotation Yrotation Zrotation
									JOINT RightHandPinky2
									{
										OFFSET -2.861649 0.000000 0.000000
										CHANNELS 3 Xrotation Yrotation Zrotation
										JOINT RightHandPinky3
										{
											OFFSET -2.863380 0.000000 0.000000
											CHANNELS 3 Xrotation Yrotation Zrotation
											End Site
											{
												OFFSET 0.843597 2.711159 0.369971
											}
										}
									}
								}
							}
							JOINT RSleeve
							{
								OFFSET -6.676277 -0.344902 -1.011730
								CHANNELS 3 Xrotation Yrotation Zrotation
								End Site
								{
									OFFSET 0.000000 14.885353 0.000000
								}
							}
						}
					}
				}
				JOINT Backpack
				{
					OFFSET 0.000000 -2.471497 36.677502
					CHANNELS 3 Xrotation Yrotation Zrotation
					End Site
					{
						OFFSET 0.000000 20.427315 0.000000
					}
				}
				JOINT Hood
				{
					OFFSET 0.000000 18.754097 -10.431000
					CHANNELS 3 Xrotation Yrotation Zrotation
					JOINT Hood1
					{
						OFFSET 0.000000 -5.011002 -7.685901
						CHANNELS 3 Xrotation Yrotation Zrotation
						End Site
						{
							OFFSET 0.000000 9.175140 0.000000
						}
					}
				}
				JOINT LHoodieString
				{
					OFFSET 5.250500 16.397697 3.089900
					CHANNELS 3 Xrotation Yrotation Zrotation
					JOINT LHoodieString1
					{
						OFFSET 0.257700 -6.364304 3.694600
						CHANNELS 3 Xrotation Yrotation Zrotation
						JOINT LHoodieString2
						{
							OFFSET 0.000000 -9.643799 2.679100
							CHANNELS 3 Xrotation Yrotation Zrotation
							End Site
							{
								OFFSET 0.000000 10.009018 0.000000
							}
						}
					}
				}
				JOINT RHoodieString
				{
					OFFSET -5.250500 16.397697 3.089900
					CHANNELS 3 Xrotation Yrotation Zrotation
					JOINT RHoodieString1
					{
						OFFSET -0.257700 -6.364304 3.694600
						CHANNELS 3 Xrotation Yrotation Zrotation
						JOINT RHoodieString2
						{
							OFFSET 0.000000 -9.643799 2.679100
							CHANNELS 3 Xrotation Yrotation Zrotation
							End Site
							{
								OFFSET 0.000000 10.009018 0.000000
							}
						}
					}
				}
			}
			JOINT LBackpack_Strap
			{
				OFFSET 15.223200 -7.719803 -6.610900
				CHANNELS 3 Xrotation Yrotation Zrotation
				End Site
				{
					OFFSET 0.000000 16.040596 0.000000
				}
			}
			JOINT RBackpack_Strap
			{
				OFFSET -15.223000 -7.719803 -6.610900
				CHANNELS 3 Xrotation Yrotation Zrotation
				End Site
				{
					OFFSET 0.000000 16.040596 0.000000
				}
			}
		}
	}
	JOINT BoyFacialAnim_Joint
	{
		OFFSET 1.000000 -82.208099 -1.550900
		CHANNELS 3 Xrotation Yrotation Zrotation
		End Site
		{
			OFFSET 0.000000 30.012791 0.000000
		}
	}
}
MOTION
Frames: 4
Frame Time: 0.033333
0.781042 76.120773 -5.553345 12.543753 8.418973 4.889078 -0.000000 0.000000 -0.000000 -30.893028 19.065235 -4.206457 43.433491 -0.506673 -1.495783 -24.191188 11.378041 5.794586 0.000000 0.000002 0.000000 0.000000 0.000002 -0.000000 0.000001 -0.000002 0.000001 -52.582788 5.722508 -6.074201 43.410821 0.625169 1.671551 -2.688499 -24.202835 -0.104628 0.000000 -0.000001 0.000000 0.000000 -0.000001 0.000000 -0.000000 0.000000 -0.000000 2.448547 0.118744 -0.574011 4.897798 0.290087 -0.940800 4.897790 0.290083 -0.940800 -1.257888 -2.883407 -0.901820 -8.388756 -5.993503 2.104276 0.000000 0.000000 -0.000000 0.000000 0.000000 -0.000000 0.000000 0.000000 -0.000000 9.238002 1.953950 -13.295812 -24.967676 -53.376129 -64.817566 1.431228 -22.244434 0.541860 16.149817 -15.869198 -18.629317 7.495206 -2.005459 -8.621999 -32.862383 16.175368 13.770863 0.000001 0.000001 -0.000001 -8.700818 5.342799 -10.417104 1.044830 2.015211 -26.327760 -0.000000 0.000003 -0.000001 -1.428799 3.832455 -12.528374 -0.141225 -1.161207 -26.867075 0.000001 -0.000003 -0.000004 1.272263 5.608263 -19.208599 -0.602577 -1.122030 -24.801090 -0.000001 0.000002 -0.000000 6.593200 5.777467 -26.749357 -0.592316 -2.565989 -15.153386 -0.000001 0.000004 0.000002 0.000002 -0.000000 0.000001 9.273397 10.002726 5.360157 -13.471815 15.644555 54.744615 0.822611 19.324603 -0.272181 -10.495112 3.433216 7.451309 23.649998 -2.416056 6.482179 -61.518694 -33.866851 -25.306221 -0.000001 0.000000 0.000001 -6.953775 -6.161242 13.902199 2.705696 -2.809712 81.806378 -0.000000 0.000000 0.000004 2.183267 -10.462998 29.304667 -3.591083 3.557120 86.529331 0.000000 -0.000002 0.000001 2.036169 -9.115512 38.065392 -2.891070 2.652067 78.624432 0.000000 -0.000000 0.000002 8.096097 -8.894746 54.813142 -4.490115 6.608070 76.668245 -0.000001 -0.000003 0.000003 0.000002 -0.000000 -0.000001 -0.000001 0.000000 -0.000000 -0.000001 0.000000 -0.000000 -0.000001 0.000000 -0.000000 -0.000001 0.000000 -0.000000 -0.000001 0.000000 0.000000 -0.000001 -0.000000 0.000000 -0.000001 0.000000 -0.000000 -0.000001 0.000000 0.000000 -0.000001 -0.000000 0.000000 0.000001 0.000000 -0.000000 0.000001 0.000000 -0.000000 -0.000000 0.000000 -0.000000 
0.848321 76.154160 -5.601040 12.452820 8.413735 4.832162 -0.000001 -0.000001 -0.000000 -30.758773 18.968733 -4.255458 43.198003 -0.499571 -1.488524 -24.270917 11.523128 6.012039 0.000000 0.000003 -0.000000 0.000000 0.000003 -0.000000 -0.000000 0.000001 0.000000 -52.403199 5.589870 -6.092094 43.221966 0.622380 1.665842 -2.620509 -24.164709 -0.073449 -0.000000 -0.000001 0.000000 -0.000000 -0.000001 0.000000 0.000000 0.000002 0.000000 2.441340 0.116664 -0.563013 4.883359 0.285377 -0.921449 4.883362 0.285376 -0.921450 -1.416120 -2.860652 -0.902401 -8.951357 -5.981568 2.081594 -0.000001 0.000000 -0.000000 -0.000001 0.000000 -0.000000 -0.000001 0.000000 -0.000000 9.224925 1.707319 -13.044399 -24.645742 -53.423127 -64.508036 1.418494 -22.171764 0.535331 15.714189 -15.764973 -18.330361 7.127880 -1.273841 -8.325700 -32.599755 16.064520 13.559078 -0.000005 -0.000001 0.000001 -8.696345 5.413662 -10.741022 1.053222 2.032824 -26.582297 0.000002 -0.000002 -0.000005 -1.442530 3.790577 -12.838320 -0.147656 -1.172619 -27.120040 0.000002 -0.000001 -0.000002 1.261047 5.610748 -19.558100 -0.616441 -1.151654 -25.122158 0.000000 -0.000000 -0.000002 6.553449 5.670589 -27.109844 -0.607165 -2.620324 -15.457697 -0.000002 -0.000001 -0.000000 0.000001 0.000000 0.000000 9.260255 9.987601 5.414574 -13.262336 16.080116 54.609125 0.810489 19.115592 -0.265369 -10.871269 3.412672 7.456785 23.679711 -2.452841 6.530261 -61.592467 -33.905032 -25.348101 -0.000001 0.000001 -0.000001 -6.973385 -6.081586 13.910116 2.705193 -2.809643 81.795702 -0.000001 -0.000001 0.000002 2.175113 -10.440561 29.419168 -3.599402 3.557619 86.655648 0.000002 0.000001 -0.000000 2.035150 -9.108010 38.178681 -2.895966 2.653049 78.700855 -0.000001 -0.000001 0.000004 8.105625 -8.891072 54.873381 -4.517406 6.614441 76.926180 0.000001 -0.000002 -0.000002 -0.000000 0.000000 -0.000001 0.000002 -0.000000 -0.000000 0.000002 -0.000000 -0.000000 0.000002 -0.000000 -0.000000 0.000002 -0.000000 -0.000000 0.000002 -0.000000 0.000000 0.000002 0.000001 -0.000000 0.000002 -0.000000 -0.000000 0.000002 -0.000000 0.000000 0.000002 0.000001 -0.000000 -0.000001 0.000000 -0.000000 -0.000001 0.000000 -0.000000 -0.000001 -0.000001 -0.000000 
0.905042 76.198051 -5.664238 12.339402 8.424767 4.774084 0.000000 -0.000001 0.000000 -30.587312 18.868579 -4.299649 43.006843 -0.495607 -1.482862 -24.264302 11.569456 6.159704 -0.000000 0.000001 -0.000000 -0.000000 0.000001 -0.000000 -0.000000 0.000001 -0.000000 -52.165635 5.467981 -6.109031 42.977791 0.617909 1.658362 -2.530453 -24.123096 -0.062300 0.000000 -0.000001 0.000000 0.000000 -0.000001 0.000000 0.000000 0.000000 -0.000000 2.428311 0.115353 -0.554411 4.857276 0.282086 -0.906207 4.857280 0.282087 -0.906204 -1.574704 -2.836309 -0.899985 -9.564602 -5.983787 2.084633 0.000001 0.000000 0.000000 0.000001 0.000000 0.000000 0.000001 0.000000 0.000000 9.201155 1.459520 -12.832410 -24.078054 -53.436777 -63.942640 1.412634 -22.206024 0.533935 15.184894 -15.632006 -18.034997 6.889871 -0.801374 -8.158580 -32.471928 16.010938 13.455090 -0.000003 0.000001 0.000001 -8.689289 5.502337 -11.270961 1.061591 2.050072 -26.832258 -0.000001 -0.000001 -0.000002 -1.460057 3.738393 -13.338397 -0.153903 -1.183611 -27.364694 0.000001 -0.000002 -0.000002 1.240663 5.580965 -19.924499 -0.629280 -1.178692 -25.416092 -0.000000 -0.000002 -0.000001 6.514868 5.572205 -27.472337 -0.621413 -2.671567 -15.745136 0.000000 -0.000002 -0.000004 0.000003 0.000001 0.000000 9.253048 9.974502 5.446698 -13.043173 16.461680 54.523997 0.801255 18.958863 -0.260286 -11.225564 3.354370 7.452000 23.708640 -2.522711 6.562056 -61.704749 -33.963245 -25.411439 -0.000001 -0.000002 -0.000002 -6.996348 -5.986085 13.935459 2.704968 -2.809608 81.791071 0.000001 -0.000002 0.000003 2.164447 -10.414511 29.512646 -3.607079 3.558065 86.771878 0.000001 -0.000002 0.000003 2.035567 -9.104081 38.286106 -2.900306 2.653912 78.768733 -0.000001 -0.000001 0.000002 8.122391 -8.893179 54.934501 -4.533217 6.618068 77.075529 0.000003 0.000002 -0.000003 -0.000001 -0.000000 -0.000000 0.000001 -0.000000 0.000000 0.000001 -0.000000 0.000000 0.000001 -0.000000 0.000000 0.000001 -0.000000 0.000000 0.000001 -0.000000 0.000000 -0.000001 -0.000000 0.000000 0.000001 -0.000000 0.000000 0.000001 -0.000000 0.000000 -0.000001 -0.000000 0.000000 0.000001 -0.000000 -0.000000 0.000001 -0.000000 -0.000000 0.000000 -0.000001 0.000000 
0.955576 76.252205 -5.736891 12.233444 8.448707 4.712867 -0.000001 -0.000001 -0.000000 -30.399615 18.766867 -4.342478 42.813364 -0.493751 -1.477375 -24.191707 11.533245 6.243539 0.000000 -0.000003 -0.000000 0.000000 -0.000003 -0.000000 -0.000002 -0.000002 0.000001 -51.910947 5.403654 -6.110633 42.689990 0.611963 1.649453 -2.402930 -24.129020 -0.033107 0.000000 -0.000001 0.000000 0.000000 -0.000001 0.000000 0.000000 -0.000001 0.000000 2.412016 0.114425 -0.547275 4.824648 0.279629 -0.893354 4.824653 0.279629 -0.893352 -1.733113 -2.812242 -0.895703 -10.220678 -5.994418 2.101784 0.000001 -0.000000 -0.000000 0.000001 -0.000000 -0.000000 0.000001 -0.000000 -0.000000 9.173534 1.208467 -12.637796 -23.394829 -53.465676 -63.285712 1.409845 -22.284249 0.534651 14.544920 -15.518900 -17.745055 6.730941 -0.505434 -8.072787 -32.426487 16.123006 13.451665 -0.000002 0.000001 -0.000000 -8.680726 5.597273 -11.890168 1.069938 2.066996 -27.078082 0.000001 0.000000 -0.000002 -1.478925 3.682403 -13.918205 -0.159982 -1.194275 -27.602806 0.000000 -0.000002 -0.000004 1.212775 5.526152 -20.298651 -0.641333 -1.203689 -25.688241 -0.000001 -0.000001 -0.000002 6.477888 5.482515 -27.831834 -0.635181 -2.720114 -16.017673 -0.000002 0.000004 0.000002 0.000002 -0.000000 0.000000 9.250245 9.961284 5.455666 -12.895051 16.856453 54.449459 0.784623 18.656942 -0.250950 -11.575325 3.417555 7.466136 23.738934 -2.617380 6.581081 -61.850546 -34.038839 -25.493589 0.000000 0.000003 0.000002 -7.021265 -5.881308 13.974934 2.705046 -2.809617 81.792711 -0.000002 -0.000001 0.000003 2.151718 -10.385550 29.587290 -3.614109 3.558442 86.878428 0.000002 0.000002 0.000002 2.037252 -9.103186 38.387637 -2.904135 2.654670 78.828634 0.000000 0.000002 0.000004 8.145235 -8.900090 54.996239 -4.540075 6.619630 77.140361 -0.000001 -0.000000 -0.000002 0.000003 0.000001 -0.000000 0.000003 -0.000000 0.000000 0.000003 -0.000000 0.000000 0.000003 -0.000000 0.000000 0.000003 -0.000000 0.000000 0.000003 -0.000000 -0.000000 0.000003 0.000001 -0.000000 0.000003 -0.000000 0.000000 0.000003 -0.000000 -0.000000 0.000003 0.000001 -0.000000 -0.000000 -0.000001 0.000000 -0.000000 -0.000001 0.000000 -0.000001 -0.000001 -0.000000 
